<?xml version="1.0" standalone="no"?>
<!DOCTYPE svg PUBLIC "-//W3C//DTD SVG 20010904//EN"
 "http://www.w3.org/TR/2001/REC-SVG-20010904/DTD/svg10.dtd">
<svg version="1.0" xmlns="http://www.w3.org/2000/svg"
 width="96.000000pt" height="96.000000pt" viewBox="0 0 96.000000 96.000000"
 preserveAspectRatio="xMidYMid meet">

<g transform="translate(0.000000,96.000000) scale(0.100000,-0.100000)"
fill="#000000" stroke="none">
<path d="M532 788 c-5 -7 -47 -144 -93 -305 -69 -245 -80 -294 -70 -307 16
-19 45 -21 59 -4 5 7 47 144 93 305 69 245 80 294 70 307 -16 19 -45 21 -59 4z"/>
<path d="M152 599 c-65 -59 -112 -108 -112 -119 0 -21 217 -220 240 -220 20 0
40 20 40 39 0 9 -39 53 -87 99 l-88 82 88 83 c86 81 99 101 75 125 -23 23 -44
11 -156 -89z"/>
<path d="M652 688 c-23 -23 -11 -44 75 -125 l88 -83 -88 -82 c-48 -46 -87 -90
-87 -99 0 -19 20 -39 40 -39 23 0 240 199 240 220 0 21 -217 220 -240 220 -9
0 -21 -5 -28 -12z"/>
</g>
</svg>
